# xmcd
#
# Track frame offsets: 
#        150
#        15636
#        33507
#        49093
#        63335
#        83843
#        98309
#        114135
#        133870
#        148998
#        164903
#
# Disc length: 2441 seconds
#
# Revision: 0
# Processed by: cddbd v1.5.2PL0 Copyright (c) Steve Scherf et al.
# Submitted via: ExactAudioCopy v0.99pb3
#
DISCID=9109870b
DTITLE=Andrea Glass - Stood Under Stars
DYEAR=2008
DGENRE=Alternative
TTITLE0=We Could Be Over
TTITLE1=Dont Burn Down The House
TTITLE2=North Wind
TTITLE3=On My Mind
TTITLE4=Silent
TTITLE5=Hurricane
TTITLE6=Black Ice
TTITLE7=Going Nowhere
TTITLE8=The Price
TTITLE9=Out Of Here
TTITLE10=Always
EXTD=
EXTT0=
EXTT1=
EXTT2=
EXTT3=
EXTT4=
EXTT5=
EXTT6=
EXTT7=
EXTT8=
EXTT9=
EXTT10=
PLAYORDER=
